<?xml version="1.0" standalone="no"?>
<!DOCTYPE svg PUBLIC "-//W3C//DTD SVG 20010904//EN"
 "http://www.w3.org/TR/2001/REC-SVG-20010904/DTD/svg10.dtd">
<svg version="1.0" xmlns="http://www.w3.org/2000/svg"
 width="1600.000000pt" height="1600.000000pt" viewBox="0 0 1600.000000 1600.000000"
 preserveAspectRatio="xMidYMid meet">
<metadata>
Created by potrace 1.11, written by Peter Selinger 2001-2013
</metadata>
<g transform="translate(0.000000,1600.000000) scale(0.100000,-0.100000)"
fill="#000000" stroke="none">
<path d="M8885 13986 c-47 -12 -324 -112 -390 -141 -16 -7 -43 -17 -60 -21
-16 -4 -48 -15 -70 -25 -22 -9 -116 -45 -210 -78 -93 -34 -179 -65 -190 -70
-11 -5 -157 -59 -325 -120 -168 -62 -314 -116 -325 -121 -18 -8 -776 -287
-1130 -416 -149 -55 -151 -55 -255 -146 -58 -50 -123 -107 -145 -127 -39 -35
-140 -123 -199 -172 -16 -13 -34 -29 -40 -35 -9 -8 -79 -70 -231 -203 -17 -14
-64 -55 -105 -91 -41 -36 -80 -69 -86 -75 -6 -5 -37 -32 -69 -60 -32 -27 -63
-55 -69 -61 -6 -5 -65 -57 -131 -114 -66 -57 -122 -106 -125 -109 -3 -3 -54
-49 -115 -101 -60 -52 -112 -97 -115 -100 -3 -3 -39 -35 -82 -72 -42 -36 -91
-79 -110 -96 -18 -16 -143 -126 -278 -243 -135 -117 -250 -217 -256 -223 -6
-6 -35 -31 -64 -56 -93 -78 -103 -91 -233 -310 -265 -443 -366 -612 -375 -623
-5 -7 -21 -32 -34 -57 -30 -54 -413 -695 -437 -730 -9 -14 -122 -201 -251
-417 -129 -216 -268 -447 -308 -514 l-72 -121 1 -1767 c1 -971 5 -1802 9
-1846 4 -44 11 -111 15 -150 3 -38 8 -81 11 -95 2 -14 7 -47 10 -75 3 -27 13
-81 21 -120 8 -38 17 -83 20 -100 19 -112 101 -378 160 -520 136 -327 359
-640 613 -860 41 -36 199 -155 205 -155 2 0 23 -13 47 -29 159 -107 381 -207
598 -271 41 -12 86 -26 100 -31 85 -28 386 -81 545 -95 44 -3 91 -9 105 -12
14 -3 2166 -7 4783 -9 l4758 -4 -4 4828 c-2 2655 -6 4846 -10 4868 -3 22 -9
65 -12 95 -8 72 -14 120 -20 150 -3 13 -7 42 -10 65 -12 80 -65 282 -103 395
-293 851 -951 1384 -1950 1580 -101 20 -138 20 -1530 19 -1093 -1 -1439 -4
-1477 -13z m2920 -1011 c492 -112 835 -354 1018 -720 62 -124 123 -322 142
-463 3 -20 7 -46 10 -57 23 -117 24 -498 1 -685 -20 -157 -25 -193 -31 -198
-3 -3 -166 127 -185 148 -3 3 -45 39 -95 80 -49 41 -92 77 -95 80 -4 4 -181
152 -323 270 -10 8 -28 23 -40 34 -12 10 -101 84 -197 165 -96 80 -186 156
-200 167 -24 21 -131 110 -530 444 -102 85 -187 157 -190 160 -3 3 -72 61
-155 130 -82 69 -152 127 -155 130 -3 3 -88 75 -190 159 -102 85 -192 160
-200 168 -12 11 93 13 645 13 l660 0 110 -25z m-2757 -167 c81 -68 155 -130
164 -139 10 -9 81 -67 157 -130 77 -63 140 -121 140 -129 1 -8 -9 -44 -20 -80
-11 -36 -31 -99 -44 -140 -13 -41 -62 -199 -110 -350 -47 -151 -97 -309 -110
-350 -13 -41 -60 -192 -105 -335 -45 -143 -90 -287 -100 -320 -10 -33 -28 -89
-39 -125 -12 -36 -30 -92 -40 -125 -11 -33 -36 -112 -55 -175 -20 -63 -43
-135 -50 -160 -8 -25 -31 -99 -52 -164 l-37 -119 -661 -664 c-364 -365 -924
-929 -1246 -1252 l-585 -588 -50 -7 c-27 -3 -61 -8 -75 -11 -81 -13 -149 -25
-175 -29 -16 -3 -86 -14 -155 -26 -69 -12 -138 -23 -155 -26 -16 -2 -55 -9
-85 -14 -30 -5 -71 -12 -90 -15 -19 -3 -46 -7 -60 -10 -14 -3 -38 -7 -55 -9
-16 -3 -45 -8 -62 -11 -18 -3 -48 -7 -65 -10 -18 -3 -58 -10 -88 -15 -30 -5
-68 -12 -85 -14 -16 -3 -86 -14 -155 -26 -69 -12 -136 -23 -150 -25 -14 -2
-68 -11 -120 -20 -52 -9 -108 -18 -125 -21 -16 -2 -41 -6 -55 -9 -24 -4 -55
-10 -125 -21 -16 -2 -41 -6 -55 -9 -14 -3 -41 -7 -60 -10 -19 -3 -47 -8 -62
-10 -16 -3 -43 -7 -60 -10 -18 -3 -44 -7 -58 -10 -14 -3 -38 -7 -55 -9 -16 -3
-84 -14 -150 -25 -66 -11 -138 -23 -160 -26 -22 -3 -45 -8 -51 -10 -10 -3 -51
68 -192 330 -24 44 -87 159 -139 255 -53 96 -109 200 -126 230 -16 30 -41 76
-55 102 l-26 46 314 523 c173 288 327 544 341 569 175 303 658 1092 682 1115
18 17 64 57 102 90 39 33 75 65 80 71 6 5 44 39 85 75 41 35 77 66 80 69 6 6
55 48 149 130 36 30 72 62 80 70 9 8 46 40 81 70 36 30 77 67 93 82 15 16 29
28 32 28 3 0 13 8 23 18 20 19 115 102 242 213 47 40 87 76 90 79 3 3 34 30
70 60 36 30 67 58 70 61 3 3 28 25 55 49 28 23 79 68 115 100 36 31 139 122
230 201 91 79 179 156 195 170 220 195 265 230 305 245 25 9 72 27 105 40 56
21 248 92 410 151 39 14 115 42 170 63 55 21 192 72 305 113 113 42 336 124
495 183 160 59 331 122 380 140 50 17 169 62 265 98 96 36 177 65 178 66 2 0
70 -55 150 -122z m1412 -1184 c21 -19 138 -117 205 -173 160 -133 581 -486
585 -490 3 -4 30 -26 60 -51 85 -69 102 -84 120 -100 9 -8 52 -44 95 -80 44
-35 82 -67 85 -70 3 -3 46 -39 95 -80 50 -41 95 -79 101 -85 6 -5 140 -118
298 -250 l287 -240 -1287 -3 c-708 -1 -1289 0 -1291 2 -4 4 27 110 96 329 61
193 92 289 122 385 17 53 39 124 49 157 10 33 37 119 60 190 23 72 48 150 55
175 7 25 27 90 45 145 17 55 48 153 68 217 l36 117 46 -37 c25 -20 56 -47 70
-58z m1860 -2629 c0 -6 -62 -132 -92 -185 -14 -25 -49 -90 -78 -145 -29 -55
-61 -112 -71 -127 -11 -14 -19 -29 -19 -33 0 -24 -335 -552 -504 -795 -82
-117 -415 -567 -438 -591 -7 -8 -67 -81 -133 -164 -65 -82 -125 -156 -132
-163 -7 -8 -56 -65 -109 -128 -53 -64 -100 -112 -104 -107 -4 4 -35 85 -70
178 -34 94 -79 215 -100 270 -21 55 -55 145 -75 200 -20 55 -47 127 -60 160
-13 33 -73 194 -134 357 -61 163 -115 307 -120 320 -6 13 -26 68 -46 123 -20
55 -47 127 -60 160 -13 33 -51 134 -85 225 -101 271 -132 353 -151 403 l-19
47 1300 0 c715 0 1300 -2 1300 -5z m-3505 -422 c3 -16 13 -41 20 -58 11 -26
377 -1001 411 -1095 7 -19 98 -264 204 -544 105 -280 189 -510 187 -512 -4 -4
-277 96 -472 171 -33 13 -130 49 -215 80 -85 31 -164 61 -175 65 -39 18 -262
100 -270 100 -4 0 -21 7 -38 15 -18 8 -239 91 -492 185 -253 95 -469 176 -480
181 -11 5 -37 15 -57 21 l-37 13 697 702 c383 387 700 703 703 703 4 0 10 -12
14 -27z m4185 -2660 l0 -2207 -936 936 -937 937 28 33 c15 18 58 67 95 108 37
41 80 91 96 110 16 19 34 40 40 45 16 14 352 419 457 550 255 320 483 631 674
920 147 222 183 277 183 281 0 3 17 31 38 62 21 32 87 142 147 245 59 103 110
187 112 187 1 0 3 -993 3 -2207z m-7155 446 c-3 -17 -14 -68 -25 -112 -10 -45
-65 -289 -121 -542 -123 -555 -145 -655 -159 -720 -74 -332 -153 -685 -156
-705 -3 -14 -21 -95 -40 -180 -20 -85 -36 -163 -37 -172 -1 -10 -4 -14 -8 -10
-7 7 -134 238 -224 407 -26 50 -51 95 -55 100 -4 6 -23 39 -42 75 -19 36 -65
119 -100 185 -36 66 -79 145 -95 175 -17 30 -42 75 -55 100 -24 43 -188 343
-252 462 -48 88 -76 139 -106 193 -24 44 -93 170 -187 345 -17 30 -40 72 -51
92 -24 42 -23 44 33 52 47 8 61 10 185 31 52 9 106 18 120 20 55 8 96 15 120
19 25 5 192 33 240 41 56 9 98 16 150 25 30 5 70 12 88 15 17 3 44 7 60 10 15
2 43 7 62 10 19 3 46 7 60 10 14 3 41 7 60 10 32 5 112 19 177 30 16 3 46 7
68 11 42 6 288 50 293 53 1 0 0 -13 -3 -30z m1107 -63 c35 -13 115 -42 178
-66 63 -23 129 -47 145 -55 17 -7 53 -20 80 -30 28 -9 59 -21 70 -26 11 -5
130 -49 265 -99 284 -106 348 -129 375 -141 11 -5 148 -56 305 -114 157 -58
295 -110 308 -115 13 -6 92 -35 175 -66 84 -30 166 -61 182 -69 17 -7 89 -34
160 -60 72 -25 144 -52 160 -60 17 -7 47 -19 68 -26 20 -7 37 -16 37 -19 0 -5
-71 -68 -284 -252 -557 -479 -1201 -934 -1771 -1250 -173 -96 -470 -244 -605
-303 -41 -18 -95 -41 -120 -52 -121 -55 -480 -187 -487 -180 -2 2 1 15 6 29 5
14 11 38 14 54 4 24 145 661 243 1099 86 384 156 704 160 725 3 14 11 52 19
85 17 72 149 665 175 785 47 220 55 245 70 235 5 -3 38 -16 72 -29z m-3922
-307 c0 -3 47 -91 103 -195 57 -104 120 -218 139 -254 20 -36 128 -234 240
-440 113 -206 221 -404 240 -440 323 -591 578 -1058 605 -1110 20 -36 46 -83
58 -105 12 -22 39 -71 60 -110 21 -38 64 -117 95 -175 32 -58 63 -116 70 -129
l12 -24 -113 6 c-63 4 -125 9 -139 11 -14 3 -46 7 -72 11 -26 3 -53 7 -60 10
-7 2 -31 7 -53 10 -66 9 -155 32 -253 64 -420 138 -694 417 -837 856 -19 58
-37 115 -40 127 -39 177 -49 236 -72 413 -3 28 -8 381 -10 785 -4 661 -3 733
11 715 8 -11 16 -23 16 -26z m8175 -2987 c-597 -1 -1574 -1 -2173 0 l-1087 3
45 23 c193 98 948 596 1131 746 14 12 38 30 53 41 16 11 33 25 40 30 6 6 27
22 46 35 19 14 116 90 215 169 163 130 203 164 285 235 14 12 68 57 120 101
52 44 113 96 135 116 46 41 206 184 274 244 25 22 65 59 90 83 l45 42 933
-932 932 -933 -1084 -3z"/>
</g>
</svg>
